<svg xmlns="http://www.w3.org/2000/svg" width="410" height="404" viewBox="0 0 410 404" fill="none"><path d="M399.641 59.5246L215.643 388.545C211.844 395.338 202.199 395.378 198.342 388.618L10.5817 59.5563C6.38087 52.1896 12.6802 43.2665 20.7526 44.7586L205.223 78.8786C206.398 79.0962 207.601 79.0959 208.776 78.8778L389.447 44.7834C397.5 43.2641 403.828 52.1329 399.698 59.5122L399.641 59.5246Z" fill="url(#paint0_linear)"/><path d="M292.965 1.5744L156.801 28.2552C154.563 28.6937 152.906 30.5903 152.771 32.8664L144.395 174.33C144.198 177.687 147.258 180.356 150.518 179.674L188.42 171.959C191.926 171.227 195.137 174.29 194.472 177.815L183.027 238.514C182.337 242.189 185.841 245.342 189.377 244.342L212.947 237.689C216.497 236.684 220.011 239.86 219.297 243.541L201.398 336.348C200.278 342.019 207.486 345.221 210.742 340.56L212.5 338.07L323.5 105.5L329.425 35.9013C329.743 32.1377 326.313 29.1909 322.641 29.9088L292.965 35.7259C289.196 36.4607 286.061 33.2871 286.928 29.561L294.448 0.814271C295.326 -2.94962 292.141 -6.37552 288.339 -5.5885L292.965 1.5744Z" fill="url(#paint1_linear)"/><defs><linearGradient id="paint0_linear" x1="6" y1="33" x2="235" y2="344" gradientUnits="userSpaceOnUse"><stop stop-color="#41D1FF"/><stop offset="1" stop-color="#BD34FE"/></linearGradient><linearGradient id="paint1_linear" x1="194.651" y1="8.81818" x2="236.076" y2="292.989" gradientUnits="userSpaceOnUse"><stop stop-color="#FFEA83"/><stop offset="0.083" stop-color="#FFDD35"/><stop offset="1" stop-color="#FFA800"/></linearGradient></defs></svg>
