<svg xmlns="http://www.w3.org/2000/svg" viewBox="0 0 841.9 595.3"><g fill="#61DAFB"><path d="M666.3 296.5c0 32.5-26.3 58.8-58.8 58.8s-58.8-26.3-58.8-58.8 26.3-58.8 58.8-58.8 58.8 26.3 58.8 58.8z"/><path d="M520.5 78.1c-45.7-26.4-104.1-39.6-168.3-39.6-64.1 0-122.6 13.2-168.3 39.6-46 26.6-71.3 62.2-71.3 101.5s25.3 74.9 71.3 101.5c45.7 26.4 104.1 39.6 168.3 39.6 64.1 0 122.6-13.2 168.3-39.6 46-26.6 71.3-62.2 71.3-101.5S566.5 104.7 520.5 78.1zm-12.2 176.9c-35.6 20.6-82.7 31.9-133.9 31.9-51.2 0-98.3-11.3-133.9-31.9-36.2-20.9-56.1-48.9-56.1-75.4s19.9-54.5 56.1-75.4c35.6-20.6 82.7-31.9 133.9-31.9 51.2 0 98.3 11.3 133.9 31.9 36.2 20.9 56.1 48.9 56.1 75.4s-19.9 54.5-56.1 75.4z"/><path d="M520.5 517.2c-45.7 26.4-104.1 39.6-168.3 39.6-64.1 0-122.6-13.2-168.3-39.6-46-26.6-71.3-62.2-71.3-101.5s25.3-74.9 71.3-101.5c45.7-26.4 104.1-39.6 168.3-39.6 64.1 0 122.6 13.2 168.3 39.6 46-26.6 71.3-62.2 71.3-101.5s-25.3-74.9-71.3-101.5c-45.7-26.4-104.1-39.6-168.3-39.6-64.1 0-122.6 13.2-168.3 39.6-46 26.6-71.3 62.2-71.3 101.5s25.3 74.9 71.3 101.5c45.7 26.4 104.1 39.6 168.3 39.6 64.1 0 122.6-13.2 168.3-39.6 46-26.6 71.3-62.2 71.3-101.5s-25.3-74.9-71.3-101.5z"/></g></svg>
